G04 Layer: BottomLayer*
G04 EasyEDA v6.5.46, 2024-08-14 00:49:08*
G04 dde63f3f8315456bab8066d9accbbf49,2068458b4593477ca407b24a564fb9b8,10*
G04 Gerber Generator version 0.2*
G04 Scale: 100 percent, Rotated: No, Reflected: No *
G04 Dimensions in millimeters *
G04 leading zeros omitted , absolute positions ,4 integer and 5 decimal *
%FSLAX45Y45*%
%MOMM*%

%AMMACRO1*21,1,$1,$2,0,0,$3*%
%ADD10C,0.2540*%
%ADD11MACRO1,0.9X1.2X90.0000*%
%ADD12MACRO1,1X0.9X-90.0000*%
%ADD13C,0.6200*%

%LPD*%
D10*
X3530600Y2870200D02*
G01*
X3543300Y2870200D01*
X2596060Y2870200D02*
G01*
X3530600Y2870200D01*
X2527300Y2844800D02*
G01*
X2534739Y2844800D01*
X2392860Y2844800D02*
G01*
X2527300Y2844800D01*
X2311400Y2870200D02*
G01*
X2331539Y2870200D01*
X1866900Y2870200D02*
G01*
X2311400Y2870200D01*
X1727200Y2260600D02*
G01*
X1727200Y2730500D01*
X1473200Y2082800D02*
G01*
X1549400Y2082800D01*
X1066800Y1765300D02*
G01*
X1321437Y2019937D01*
X3530600Y2933700D02*
G01*
X3632200Y2933700D01*
X2442519Y2933700D02*
G01*
X3530600Y2933700D01*
X1866900Y2933700D02*
G01*
X2442519Y2933700D01*
X1663700Y2273300D02*
G01*
X1663700Y2730500D01*
X1524000Y2146300D02*
G01*
X1536700Y2146300D01*
X1437279Y2146300D02*
G01*
X1524000Y2146300D01*
X1028700Y1841500D02*
G01*
X1260116Y2072916D01*
X990600Y1663700D02*
G01*
X990600Y1749518D01*
X1143000Y1054100D02*
G01*
X1143000Y1460500D01*
X1143000Y1003300D02*
G01*
X1143000Y1054100D01*
X873912Y1275994D02*
G01*
X958494Y1275994D01*
X873912Y1425981D02*
G01*
X943381Y1425981D01*
X4025900Y2755900D02*
G01*
X4025900Y2717800D01*
X3638550Y3073400D02*
G01*
X3873500Y3073400D01*
X3759200Y3009900D02*
G01*
X3771900Y3009900D01*
X1816100Y3009900D02*
G01*
X3759200Y3009900D01*
X1219200Y3009900D02*
G01*
X1816100Y3009900D01*
X1192580Y3009900D02*
G01*
X1219200Y3009900D01*
X1117600Y2934919D02*
G01*
X1117600Y2946400D01*
X1054100Y2962732D02*
G01*
X1054100Y2965450D01*
X1117600Y2934919D02*
G01*
X1117600Y2946400D01*
X1472006Y1575993D02*
G01*
X873912Y1575993D01*
X573900Y2251001D02*
G01*
X793889Y2251001D01*
X573900Y1051003D02*
G01*
X793889Y1051003D01*
X873899Y1575996D02*
G01*
X873899Y1725983D01*
X1181100Y3073400D02*
G01*
X3638550Y3073400D01*
X1117600Y2057400D02*
G01*
X1117600Y2934919D01*
X1054100Y2146300D02*
G01*
X1054100Y2962732D01*
X1727200Y927100D02*
G01*
X1219200Y927100D01*
X793902Y2250998D02*
G01*
X927100Y2250998D01*
X927100Y2247900D01*
X797001Y1054100D02*
G01*
X1143000Y1054100D01*
D11*
G01*
X873899Y1275994D03*
G01*
X873899Y1425994D03*
G01*
X873899Y1575993D03*
G01*
X873899Y1725993D03*
G01*
X873899Y1875993D03*
G01*
X873899Y2025992D03*
D12*
G01*
X793899Y2250994D03*
G01*
X573900Y2250996D03*
G01*
X793899Y1050996D03*
G01*
X573902Y1050993D03*
D10*
G75*
G01*
X1054100Y2965450D02*
G02*
X1162050Y3073400I107950J0D01*
G75*
G01*
X873912Y1875993D02*
G03*
X1117600Y2119681I0J243688D01*
G75*
G01*
X3543300Y2870200D02*
G02*
X3683000Y2730500I0J-139700D01*
G75*
G01*
X2565400Y2857500D02*
G02*
X2596060Y2870200I30660J-30660D01*
G75*
G01*
X2534740Y2844800D02*
G03*
X2565400Y2857500I0J43360D01*
G75*
G01*
X2362200Y2857500D02*
G03*
X2392860Y2844800I30660J30660D01*
G75*
G01*
X2331540Y2870200D02*
G02*
X2362200Y2857500I0J-43360D01*
G75*
G01*
X1727200Y2730500D02*
G02*
X1866900Y2870200I139700J0D01*
G75*
G01*
X1549400Y2082800D02*
G03*
X1727200Y2260600I0J177800D01*
G75*
G01*
X1321438Y2019938D02*
G02*
X1473200Y2082800I151762J-151760D01*
G75*
G01*
X3632200Y2933700D02*
G02*
X3860800Y2705100I0J-228600D01*
G75*
G01*
X1663700Y2730500D02*
G02*
X1866900Y2933700I203200J0D01*
G75*
G01*
X1536700Y2146300D02*
G03*
X1663700Y2273300I0J127000D01*
G75*
G01*
X1260117Y2072917D02*
G02*
X1437279Y2146300I177162J-177163D01*
G75*
G01*
X990600Y1749519D02*
G02*
X1028700Y1841500I130081J0D01*
G75*
G01*
X793902Y1051001D02*
G02*
X797001Y1054100I3099J0D01*
G75*
G01*
X1219200Y927100D02*
G02*
X1143000Y1003300I0J76200D01*
G75*
G01*
X958494Y1275994D02*
G03*
X1003300Y1320800I0J44806D01*
G75*
G01*
X943381Y1425981D02*
G03*
X990600Y1473200I0J47219D01*
G75*
G01*
X1739900Y977900D02*
G02*
X1689100Y927100I-50800J0D01*
G75*
G01*
X3771900Y3009900D02*
G02*
X4025900Y2755900I0J-254000D01*
G75*
G01*
X3873500Y3073400D02*
G02*
X4229100Y2717800I0J-355600D01*
G75*
G01*
X1117600Y2934919D02*
G02*
X1192581Y3009900I74981J0D01*
G75*
G01*
X873912Y2025980D02*
G03*
X1054100Y2206168I0J180188D01*
G75*
G01*
X1739900Y1308100D02*
G03*
X1472006Y1575994I-267894J0D01*
D13*
G01*
X1739900Y1308100D03*
G01*
X1739900Y977900D03*
G01*
X1181100Y3073400D03*
G01*
X1816100Y3009900D03*
G01*
X4229100Y2717800D03*
G01*
X4025900Y2717800D03*
G01*
X990600Y1473200D03*
G01*
X1003300Y1320800D03*
G01*
X1143000Y1460500D03*
G01*
X990600Y1663700D03*
G01*
X1066800Y1765300D03*
G01*
X2442514Y2933700D03*
G01*
X3860215Y2721355D03*
G01*
X3035300Y2857500D03*
G01*
X3683000Y2717800D03*
G01*
X927100Y2250998D03*
M02*
