G04 Layer: TopSolderMaskLayer*
G04 EasyEDA v6.5.46, 2024-08-14 00:49:08*
G04 dde63f3f8315456bab8066d9accbbf49,2068458b4593477ca407b24a564fb9b8,10*
G04 Gerber Generator version 0.2*
G04 Scale: 100 percent, Rotated: No, Reflected: No *
G04 Dimensions in millimeters *
G04 leading zeros omitted , absolute positions ,4 integer and 5 decimal *
%FSLAX45Y45*%
%MOMM*%

%AMMACRO1*4,1,8,-0.4161,-0.3208,-0.4458,-0.2908,-0.4458,0.2911,-0.4161,0.3208,0.4158,0.3208,0.4458,0.2911,0.4458,-0.2908,0.4158,-0.3208,-0.4161,-0.3208,0*%
%AMMACRO2*4,1,8,-0.5211,-0.5008,-0.5508,-0.4708,-0.5508,0.471,-0.5211,0.5008,0.5208,0.5008,0.5508,0.471,0.5508,-0.4708,0.5208,-0.5008,-0.5211,-0.5008,0*%
%AMMACRO3*4,1,8,-2.0211,-0.5508,-2.0508,-0.5208,-2.0508,0.5211,-2.0211,0.5508,2.0208,0.5508,2.0508,0.5211,2.0508,-0.5208,2.0208,-0.5508,-2.0211,-0.5508,0*%
%ADD10MACRO1*%
%ADD11MACRO2*%
%ADD12MACRO3*%

%LPD*%
G36*
X3063900Y2825394D02*
G01*
X3063900Y2305405D01*
X3463899Y2305405D01*
X3463899Y2825394D01*
G37*
G36*
X2454300Y2825394D02*
G01*
X2454300Y2305405D01*
X2854299Y2305405D01*
X2854299Y2825394D01*
G37*
G36*
X1832000Y2838094D02*
G01*
X1832000Y2318105D01*
X2231999Y2318105D01*
X2231999Y2838094D01*
G37*
G36*
X1197000Y2850794D02*
G01*
X1197000Y2330805D01*
X1596999Y2330805D01*
X1596999Y2850794D01*
G37*
D10*
G01*
X1799691Y1206500D03*
G01*
X1908708Y1206500D03*
D11*
G01*
X3670312Y3018701D03*
G01*
X3670312Y2848698D03*
G01*
X3848112Y3018701D03*
G01*
X3848112Y2848698D03*
G01*
X4025912Y3018701D03*
G01*
X4025912Y2848698D03*
G01*
X4203712Y3018701D03*
G01*
X4203712Y2848698D03*
D12*
G01*
X3263900Y2875394D03*
G01*
X3263900Y2255405D03*
G01*
X2654300Y2875394D03*
G01*
X2654300Y2255405D03*
G01*
X2031999Y2888094D03*
G01*
X2031999Y2268105D03*
G01*
X1397000Y2900794D03*
G01*
X1397000Y2280805D03*
D10*
G01*
X1799691Y1079500D03*
G01*
X1908708Y1079500D03*
G36*
X1155700Y3111500D02*
G01*
X1638300Y3111500D01*
X1638300Y2070100D01*
X1155700Y2070100D01*
G37*
G36*
X1790700Y3111500D02*
G01*
X2273300Y3111500D01*
X2273300Y2070100D01*
X1790700Y2070100D01*
G37*
G36*
X2425700Y3111500D02*
G01*
X2908300Y3111500D01*
X2908300Y2070100D01*
X2425700Y2070100D01*
G37*
G36*
X3022600Y3111500D02*
G01*
X3505200Y3111500D01*
X3505200Y2070100D01*
X3022600Y2070100D01*
G37*
M02*
