G04 Layer: BottomSilkscreenLayer*
G04 EasyEDA v6.5.46, 2024-08-14 00:49:08*
G04 dde63f3f8315456bab8066d9accbbf49,2068458b4593477ca407b24a564fb9b8,10*
G04 Gerber Generator version 0.2*
G04 Scale: 100 percent, Rotated: No, Reflected: No *
G04 Dimensions in millimeters *
G04 leading zeros omitted , absolute positions ,4 integer and 5 decimal *
%FSLAX45Y45*%
%MOMM*%

%ADD10C,0.1524*%
%ADD11C,0.2540*%

%LPD*%
D10*
X1065009Y1660144D02*
G01*
X1075423Y1649729D01*
X1080503Y1634236D01*
X1080503Y1613407D01*
X1075423Y1597913D01*
X1065009Y1587500D01*
X1054595Y1587500D01*
X1044181Y1592579D01*
X1038847Y1597913D01*
X1033767Y1608328D01*
X1023353Y1639570D01*
X1018273Y1649729D01*
X1012939Y1655063D01*
X1002525Y1660144D01*
X987031Y1660144D01*
X976617Y1649729D01*
X971537Y1634236D01*
X971537Y1613407D01*
X976617Y1597913D01*
X987031Y1587500D01*
X1080503Y1694434D02*
G01*
X971537Y1720595D01*
X1080503Y1746504D02*
G01*
X971537Y1720595D01*
X1080503Y1746504D02*
G01*
X971537Y1772412D01*
X1080503Y1798320D02*
G01*
X971537Y1772412D01*
X1059675Y1832610D02*
G01*
X1065009Y1843023D01*
X1080503Y1858771D01*
X971537Y1858771D01*
D11*
X543699Y1130294D02*
G01*
X543699Y2177895D01*
X494901Y2120092D02*
G01*
X543697Y2120092D01*
X451901Y2120092D02*
G01*
X462894Y2120092D01*
X406902Y2119091D02*
G01*
X418899Y2119091D01*
X343893Y2118093D02*
G01*
X369900Y2118093D01*
X343893Y2104090D02*
G01*
X343893Y2118093D01*
X342900Y2048093D02*
G01*
X342900Y2065088D01*
X360898Y1990092D02*
G01*
X343893Y1990092D01*
X343893Y2017092D01*
X403898Y1990092D02*
G01*
X381896Y1990092D01*
X469900Y1988088D02*
G01*
X438899Y1988088D01*
X543697Y1989231D02*
G01*
X509894Y1989231D01*
X494896Y1924154D02*
G01*
X543697Y1924154D01*
X451896Y1924154D02*
G01*
X462894Y1924154D01*
X406897Y1923148D02*
G01*
X418894Y1923148D01*
X343893Y1922152D02*
G01*
X369892Y1922152D01*
X343893Y1908147D02*
G01*
X343893Y1922152D01*
X342894Y1852150D02*
G01*
X342894Y1869150D01*
X360893Y1794149D02*
G01*
X343893Y1794149D01*
X343893Y1821152D01*
X403893Y1794149D02*
G01*
X381891Y1794149D01*
X469894Y1792150D02*
G01*
X438891Y1792150D01*
X543697Y1793288D02*
G01*
X509889Y1793288D01*
X494901Y1709000D02*
G01*
X543699Y1709000D01*
X451901Y1709000D02*
G01*
X462899Y1709000D01*
X406900Y1708000D02*
G01*
X418901Y1708000D01*
X343900Y1706999D02*
G01*
X369900Y1706999D01*
X343900Y1692998D02*
G01*
X343900Y1706999D01*
X342900Y1636999D02*
G01*
X342900Y1653999D01*
X360900Y1579001D02*
G01*
X343900Y1579001D01*
X343900Y1606001D01*
X403900Y1579001D02*
G01*
X381901Y1579001D01*
X469900Y1576999D02*
G01*
X438901Y1576999D01*
X543699Y1578137D02*
G01*
X509899Y1578137D01*
X543897Y1490995D02*
G01*
X343898Y1490995D01*
X725299Y2210993D02*
G01*
X645299Y2210993D01*
X723900Y1090996D02*
G01*
X643900Y1090996D01*
X813899Y2094108D02*
G01*
X813899Y2177895D01*
X813899Y1207879D02*
G01*
X813899Y1130294D01*
X813899Y1124110D01*
X813899Y1944108D02*
G01*
X813899Y1957877D01*
X813899Y1794108D02*
G01*
X813899Y1807878D01*
X813899Y1644108D02*
G01*
X813899Y1657878D01*
X813899Y1494109D02*
G01*
X813899Y1507878D01*
X813899Y1344109D02*
G01*
X813899Y1357878D01*
X343898Y1490995D02*
G01*
X343898Y1360995D01*
X543897Y1360995D02*
G01*
X343898Y1360995D01*
M02*
