G04 Layer: TopLayer*
G04 EasyEDA v6.5.46, 2024-08-14 00:49:08*
G04 dde63f3f8315456bab8066d9accbbf49,2068458b4593477ca407b24a564fb9b8,10*
G04 Gerber Generator version 0.2*
G04 Scale: 100 percent, Rotated: No, Reflected: No *
G04 Dimensions in millimeters *
G04 leading zeros omitted , absolute positions ,4 integer and 5 decimal *
%FSLAX45Y45*%
%MOMM*%

%AMMACRO1*21,1,$1,$2,0,0,$3*%
%ADD10C,0.2540*%
%ADD11C,0.5000*%
%ADD12MACRO1,0.54X0.7901X-90.0000*%
%ADD13R,1.0000X0.8999*%
%ADD14R,4.0000X1.0000*%
%ADD15C,0.6200*%

%LPD*%
G36*
X3022600Y3111500D02*
G01*
X3023108Y2792069D01*
X3505708Y2792069D01*
X3505200Y3111500D01*
G37*
G36*
X2425700Y3111500D02*
G01*
X2425700Y2781300D01*
X2908300Y2781300D01*
X2908300Y3111500D01*
G37*
G36*
X3023108Y2360269D02*
G01*
X3022600Y2044700D01*
X3505200Y2044700D01*
X3505708Y2360269D01*
G37*
G36*
X2424226Y2354681D02*
G01*
X2425700Y2044700D01*
X2908300Y2044700D01*
X2906826Y2354681D01*
G37*
G36*
X1790700Y2362200D02*
G01*
X1790700Y2044700D01*
X2273300Y2044700D01*
X2273300Y2362200D01*
G37*
G36*
X1790700Y3111500D02*
G01*
X1790700Y2787650D01*
X2273300Y2787650D01*
X2273300Y3111500D01*
G37*
G36*
X1155700Y2362200D02*
G01*
X1155700Y2044700D01*
X1638300Y2044700D01*
X1638300Y2362200D01*
G37*
G36*
X1155700Y3111500D02*
G01*
X1155700Y2794000D01*
X1638300Y2794000D01*
X1638300Y3111500D01*
G37*
D10*
X1143000Y1460500D02*
G01*
X1143000Y1993900D01*
X3568700Y2921000D02*
G01*
X3568700Y2425700D01*
X3670300Y3018688D02*
G01*
X3666388Y3018688D01*
X3683000Y2717800D02*
G01*
X3683000Y2835986D01*
X3860220Y2721358D02*
G01*
X3860220Y2836565D01*
X1066800Y1409700D02*
G01*
X1066800Y1765300D01*
X1003300Y1320800D02*
G01*
X1003300Y1346200D01*
X990600Y1473200D02*
G01*
X990600Y1663700D01*
X4229100Y2717800D02*
G01*
X4229100Y2823286D01*
X4025900Y2717800D02*
G01*
X4025900Y2848686D01*
X3670300Y3018688D02*
G01*
X4203700Y3018688D01*
X1739900Y1019708D02*
G01*
X1739900Y977900D01*
X1739900Y1266291D02*
G01*
X1739900Y1308100D01*
D11*
X1908708Y1206500D02*
G01*
X1908708Y1079500D01*
X1908708Y999591D02*
G01*
X1908708Y1079500D01*
X3708400Y2044700D02*
G01*
X1181100Y2044700D01*
X4178300Y825500D02*
G01*
X4178300Y1574800D01*
X1231900Y1587500D02*
G01*
X1231900Y774700D01*
X1320800Y1562100D02*
G01*
X1320800Y800100D01*
X3670300Y1841500D02*
G01*
X1600200Y1841500D01*
X3975100Y901700D02*
G01*
X3975100Y1536700D01*
X1676400Y571500D02*
G01*
X3644900Y571500D01*
X1422400Y1536700D02*
G01*
X1422400Y825500D01*
X3644900Y1739900D02*
G01*
X1625600Y1739900D01*
X3873500Y927100D02*
G01*
X3873500Y1511300D01*
X1689100Y673100D02*
G01*
X3619500Y673100D01*
X1524000Y1473200D02*
G01*
X1524000Y838200D01*
X3606800Y1638300D02*
G01*
X1689100Y1638300D01*
X1701800Y774700D02*
G01*
X3594100Y774700D01*
X1625600Y1460500D02*
G01*
X1625600Y850900D01*
X1727200Y1536700D02*
G01*
X1701800Y1536700D01*
X3606800Y1536700D02*
G01*
X1727200Y1536700D01*
X3670300Y1460500D02*
G01*
X3670300Y1473200D01*
X3670300Y977900D02*
G01*
X3670300Y1460500D01*
X3670300Y965200D02*
G01*
X3670300Y977900D01*
X3708400Y1930400D02*
G01*
X1709165Y1930400D01*
X1574800Y1930400D01*
X1625600Y381000D02*
G01*
X3733800Y381000D01*
X3771900Y952500D02*
G01*
X3771900Y1473200D01*
X4076700Y850900D02*
G01*
X4076700Y1153668D01*
X4076700Y1562100D01*
X2019300Y889000D02*
G01*
X2374391Y889000D01*
X3594100Y889000D01*
D10*
X927100Y2250998D02*
G01*
X1168400Y2250998D01*
X1168400Y2247900D01*
D11*
X1651000Y469900D02*
G01*
X3695700Y469900D01*
D12*
G01*
X1799694Y1206500D03*
G01*
X1908705Y1206500D03*
D13*
G01*
X3670300Y3018688D03*
G01*
X3670300Y2848686D03*
G01*
X3848100Y3018688D03*
G01*
X3848100Y2848686D03*
G01*
X4025900Y3018688D03*
G01*
X4025900Y2848686D03*
G01*
X4203700Y3018688D03*
G01*
X4203700Y2848686D03*
D14*
G01*
X3263900Y2875406D03*
G01*
X3263900Y2255393D03*
G01*
X2654300Y2875406D03*
G01*
X2654300Y2255393D03*
G01*
X2032000Y2888106D03*
G01*
X2032000Y2268093D03*
G01*
X1397000Y2900806D03*
G01*
X1397000Y2280793D03*
D12*
G01*
X1799694Y1079500D03*
G01*
X1908705Y1079500D03*
D11*
G75*
G01*
X3733800Y381000D02*
G03*
X4178300Y825500I0J444500D01*
D10*
G75*
G01*
X1143000Y1993900D02*
G02*
X1193800Y2044700I50800J0D01*
G75*
G01*
X3568700Y2425700D02*
G02*
X3492500Y2349500I-76200J0D01*
G75*
G01*
X3666388Y3018688D02*
G03*
X3568700Y2921000I0J-97688D01*
G75*
G01*
X3683000Y2835986D02*
G03*
X3670300Y2848686I-12700J0D01*
G75*
G01*
X3860221Y2836565D02*
G03*
X3848100Y2848686I-12121J0D01*
G75*
G01*
X1028700Y1371600D02*
G03*
X1066800Y1409700I0J38100D01*
G75*
G01*
X1003300Y1346200D02*
G02*
X1028700Y1371600I25400J0D01*
G75*
G01*
X4229100Y2823286D02*
G03*
X4203700Y2848686I-25400J0D01*
G75*
G01*
X1799692Y1079500D02*
G03*
X1739900Y1019708I0J-59792D01*
G75*
G01*
X1799692Y1206500D02*
G02*
X1739900Y1266292I0J59792D01*
D11*
G75*
G01*
X2019300Y889000D02*
G02*
X1908708Y999592I0J110592D01*
G75*
G01*
X4076700Y1562100D02*
G03*
X3708400Y1930400I-368300J0D01*
G75*
G01*
X4178300Y1574800D02*
G03*
X3708400Y2044700I-469900J0D01*
G75*
G01*
X1574800Y1930400D02*
G03*
X1231900Y1587500I0J-342900D01*
G75*
G01*
X1231900Y774700D02*
G03*
X1625600Y381000I393700J0D01*
G75*
G01*
X3695700Y469900D02*
G03*
X4076700Y850900I0J381000D01*
G75*
G01*
X1320800Y800100D02*
G03*
X1651000Y469900I330200J0D01*
G75*
G01*
X1600200Y1841500D02*
G03*
X1320800Y1562100I0J-279400D01*
G75*
G01*
X3975100Y1536700D02*
G03*
X3670300Y1841500I-304800J0D01*
G75*
G01*
X3644900Y571500D02*
G03*
X3975100Y901700I0J330200D01*
G75*
G01*
X1422400Y825500D02*
G03*
X1676400Y571500I254000J0D01*
G75*
G01*
X1625600Y1739900D02*
G03*
X1422400Y1536700I0J-203200D01*
G75*
G01*
X3873500Y1511300D02*
G03*
X3644900Y1739900I-228600J0D01*
G75*
G01*
X3619500Y673100D02*
G03*
X3873500Y927100I0J254000D01*
G75*
G01*
X1524000Y838200D02*
G03*
X1689100Y673100I165100J0D01*
G75*
G01*
X1689100Y1638300D02*
G03*
X1524000Y1473200I0J-165100D01*
G75*
G01*
X3771900Y1473200D02*
G03*
X3606800Y1638300I-165100J0D01*
G75*
G01*
X3594100Y774700D02*
G03*
X3771900Y952500I0J177800D01*
G75*
G01*
X1625600Y850900D02*
G03*
X1701800Y774700I76200J0D01*
G75*
G01*
X1701800Y1536700D02*
G03*
X1625600Y1460500I0J-76200D01*
G75*
G01*
X3670300Y1473200D02*
G03*
X3606800Y1536700I-63500J0D01*
G75*
G01*
X3594100Y889000D02*
G03*
X3670300Y965200I0J76200D01*
D15*
G01*
X1739900Y1308100D03*
G01*
X1739900Y977900D03*
G01*
X1181100Y3073400D03*
G01*
X1816100Y3009900D03*
G01*
X4229100Y2717800D03*
G01*
X4025900Y2717800D03*
G01*
X990600Y1473200D03*
G01*
X1003300Y1320800D03*
G01*
X1143000Y1460500D03*
G01*
X990600Y1663700D03*
G01*
X1066800Y1765300D03*
G01*
X2442514Y2933700D03*
G01*
X3860215Y2721355D03*
G01*
X3035300Y2857500D03*
G01*
X3683000Y2717800D03*
G01*
X927100Y2250998D03*
M02*
