G04 Layer: TopSilkscreenLayer*
G04 EasyEDA v6.5.46, 2024-08-14 00:49:08*
G04 dde63f3f8315456bab8066d9accbbf49,2068458b4593477ca407b24a564fb9b8,10*
G04 Gerber Generator version 0.2*
G04 Scale: 100 percent, Rotated: No, Reflected: No *
G04 Dimensions in millimeters *
G04 leading zeros omitted , absolute positions ,4 integer and 5 decimal *
%FSLAX45Y45*%
%MOMM*%

%ADD10C,0.2032*%
%ADD11C,0.1524*%
%ADD12C,0.1500*%

%LPD*%
D10*
X1082547Y1308100D02*
G01*
X1091692Y1289557D01*
X1119378Y1261871D01*
X925576Y1261871D01*
X1098550Y1616455D02*
G01*
X1107947Y1616455D01*
X1126489Y1607057D01*
X1135634Y1597913D01*
X1144778Y1579371D01*
X1144778Y1542542D01*
X1135634Y1524000D01*
X1126489Y1514855D01*
X1107947Y1505457D01*
X1089405Y1505457D01*
X1070863Y1514855D01*
X1043178Y1533144D01*
X950976Y1625600D01*
X950976Y1496313D01*
X1132078Y1911857D02*
G01*
X1132078Y1810257D01*
X1058163Y1865629D01*
X1058163Y1837944D01*
X1049020Y1819655D01*
X1039876Y1810257D01*
X1012189Y1801113D01*
X993647Y1801113D01*
X965962Y1810257D01*
X947420Y1828800D01*
X938276Y1856486D01*
X938276Y1884171D01*
X947420Y1911857D01*
X956563Y1921255D01*
X975105Y1930400D01*
X1132078Y2053844D02*
G01*
X1002792Y2146300D01*
X1002792Y2007870D01*
X1132078Y2053844D02*
G01*
X938276Y2053844D01*
X2691129Y539750D02*
G01*
X2681986Y558292D01*
X2663443Y576834D01*
X2645156Y585978D01*
X2608072Y585978D01*
X2589529Y576834D01*
X2571241Y558292D01*
X2561843Y539750D01*
X2552700Y512063D01*
X2552700Y466089D01*
X2561843Y438150D01*
X2571241Y419862D01*
X2589529Y401320D01*
X2608072Y392176D01*
X2645156Y392176D01*
X2663443Y401320D01*
X2681986Y419862D01*
X2691129Y438150D01*
X2752090Y521462D02*
G01*
X2752090Y429005D01*
X2761488Y401320D01*
X2780029Y392176D01*
X2807715Y392176D01*
X2826004Y401320D01*
X2853690Y429005D01*
X2853690Y521462D02*
G01*
X2853690Y392176D01*
X2914650Y585978D02*
G01*
X2914650Y392176D01*
X2914650Y493776D02*
G01*
X2933191Y512063D01*
X2951734Y521462D01*
X2979420Y521462D01*
X2997961Y512063D01*
X3016250Y493776D01*
X3025647Y466089D01*
X3025647Y447547D01*
X3016250Y419862D01*
X2997961Y401320D01*
X2979420Y392176D01*
X2951734Y392176D01*
X2933191Y401320D01*
X2914650Y419862D01*
X3086608Y585978D02*
G01*
X3095752Y576834D01*
X3105150Y585978D01*
X3095752Y595376D01*
X3086608Y585978D01*
X3095752Y521462D02*
G01*
X3095752Y392176D01*
X3276854Y493776D02*
G01*
X3258311Y512063D01*
X3239770Y521462D01*
X3212084Y521462D01*
X3193795Y512063D01*
X3175254Y493776D01*
X3166109Y466089D01*
X3166109Y447547D01*
X3175254Y419862D01*
X3193795Y401320D01*
X3212084Y392176D01*
X3239770Y392176D01*
X3258311Y401320D01*
X3276854Y419862D01*
X3337813Y585978D02*
G01*
X3337813Y392176D01*
X3337813Y585978D02*
G01*
X3411727Y392176D01*
X3485641Y585978D02*
G01*
X3411727Y392176D01*
X3485641Y585978D02*
G01*
X3485641Y392176D01*
X3657345Y521462D02*
G01*
X3657345Y392176D01*
X3657345Y493776D02*
G01*
X3638804Y512063D01*
X3620515Y521462D01*
X3592829Y521462D01*
X3574288Y512063D01*
X3555745Y493776D01*
X3546602Y466089D01*
X3546602Y447547D01*
X3555745Y419862D01*
X3574288Y401320D01*
X3592829Y392176D01*
X3620515Y392176D01*
X3638804Y401320D01*
X3657345Y419862D01*
X3718306Y585978D02*
G01*
X3718306Y392176D01*
X3810761Y521462D02*
G01*
X3718306Y429005D01*
X3755390Y466089D02*
G01*
X3819906Y392176D01*
X3880865Y466089D02*
G01*
X3991609Y466089D01*
X3991609Y484378D01*
X3982465Y502920D01*
X3973322Y512063D01*
X3954779Y521462D01*
X3927093Y521462D01*
X3908552Y512063D01*
X3890009Y493776D01*
X3880865Y466089D01*
X3880865Y447547D01*
X3890009Y419862D01*
X3908552Y401320D01*
X3927093Y392176D01*
X3954779Y392176D01*
X3973322Y401320D01*
X3991609Y419862D01*
X4052570Y521462D02*
G01*
X4052570Y392176D01*
X4052570Y466089D02*
G01*
X4061968Y493776D01*
X4080509Y512063D01*
X4098797Y521462D01*
X4126484Y521462D01*
X4289043Y493776D02*
G01*
X4279900Y512063D01*
X4252213Y521462D01*
X4224527Y521462D01*
X4196841Y512063D01*
X4187443Y493776D01*
X4196841Y475234D01*
X4215129Y466089D01*
X4261358Y456692D01*
X4279900Y447547D01*
X4289043Y429005D01*
X4289043Y419862D01*
X4279900Y401320D01*
X4252213Y392176D01*
X4224527Y392176D01*
X4196841Y401320D01*
X4187443Y419862D01*
X3302000Y788162D02*
G01*
X3302000Y658876D01*
X3302000Y751078D02*
G01*
X3329686Y778763D01*
X3348227Y788162D01*
X3375913Y788162D01*
X3394456Y778763D01*
X3403600Y751078D01*
X3403600Y658876D01*
X3538474Y852678D02*
G01*
X3519931Y852678D01*
X3501390Y843534D01*
X3492245Y815847D01*
X3492245Y658876D01*
X3464559Y788162D02*
G01*
X3529329Y788162D01*
X3710177Y760476D02*
G01*
X3691890Y778763D01*
X3673347Y788162D01*
X3645661Y788162D01*
X3627120Y778763D01*
X3608577Y760476D01*
X3599434Y732789D01*
X3599434Y714247D01*
X3608577Y686562D01*
X3627120Y668020D01*
X3645661Y658876D01*
X3673347Y658876D01*
X3691890Y668020D01*
X3710177Y686562D01*
X3863593Y852678D02*
G01*
X3771138Y723392D01*
X3909822Y723392D01*
X3863593Y852678D02*
G01*
X3863593Y658876D01*
X3970781Y852678D02*
G01*
X3979925Y843534D01*
X3989070Y852678D01*
X3979925Y862076D01*
X3970781Y852678D01*
X3979925Y788162D02*
G01*
X3979925Y658876D01*
X4050029Y788162D02*
G01*
X4050029Y658876D01*
X4050029Y751078D02*
G01*
X4077970Y778763D01*
X4096258Y788162D01*
X4123943Y788162D01*
X4142486Y778763D01*
X4151629Y751078D01*
X4151629Y658876D01*
X4212590Y815847D02*
G01*
X4231131Y824992D01*
X4258818Y852678D01*
X4258818Y658876D01*
D11*
X2084585Y1245107D02*
G01*
X2079251Y1255521D01*
X2068837Y1265936D01*
X2058677Y1271015D01*
X2037849Y1271015D01*
X2027435Y1265936D01*
X2017021Y1255521D01*
X2011687Y1245107D01*
X2006607Y1229360D01*
X2006607Y1203452D01*
X2011687Y1187957D01*
X2017021Y1177544D01*
X2027435Y1167129D01*
X2037849Y1162050D01*
X2058677Y1162050D01*
X2068837Y1167129D01*
X2079251Y1177544D01*
X2084585Y1187957D01*
X2118875Y1250187D02*
G01*
X2129289Y1255521D01*
X2144783Y1271015D01*
X2144783Y1162050D01*
X3605784Y2286010D02*
G01*
X3714750Y2286010D01*
X3714750Y2286010D02*
G01*
X3714750Y2348240D01*
X3605784Y2382530D02*
G01*
X3714750Y2382530D01*
X3605784Y2382530D02*
G01*
X3605784Y2450094D01*
X3657600Y2382530D02*
G01*
X3657600Y2424186D01*
X3714750Y2382530D02*
G01*
X3714750Y2450094D01*
X3605784Y2484384D02*
G01*
X3714750Y2484384D01*
X3605784Y2484384D02*
G01*
X3605784Y2520960D01*
X3610863Y2536454D01*
X3621277Y2546868D01*
X3631691Y2551948D01*
X3647440Y2557282D01*
X3673347Y2557282D01*
X3688841Y2551948D01*
X3699256Y2546868D01*
X3709670Y2536454D01*
X3714750Y2520960D01*
X3714750Y2484384D01*
X3626611Y2591572D02*
G01*
X3621277Y2601986D01*
X3605784Y2617480D01*
X3714750Y2617480D01*
X3783584Y2286010D02*
G01*
X3892550Y2286010D01*
X3892550Y2286010D02*
G01*
X3892550Y2348240D01*
X3783584Y2382530D02*
G01*
X3892550Y2382530D01*
X3783584Y2382530D02*
G01*
X3783584Y2450094D01*
X3835400Y2382530D02*
G01*
X3835400Y2424186D01*
X3892550Y2382530D02*
G01*
X3892550Y2450094D01*
X3783584Y2484384D02*
G01*
X3892550Y2484384D01*
X3783584Y2484384D02*
G01*
X3783584Y2520960D01*
X3788663Y2536454D01*
X3799077Y2546868D01*
X3809491Y2551948D01*
X3825240Y2557282D01*
X3851147Y2557282D01*
X3866641Y2551948D01*
X3877056Y2546868D01*
X3887470Y2536454D01*
X3892550Y2520960D01*
X3892550Y2484384D01*
X3809491Y2596652D02*
G01*
X3804411Y2596652D01*
X3793997Y2601986D01*
X3788663Y2607066D01*
X3783584Y2617480D01*
X3783584Y2638308D01*
X3788663Y2648722D01*
X3793997Y2653802D01*
X3804411Y2659136D01*
X3814825Y2659136D01*
X3825240Y2653802D01*
X3840734Y2643388D01*
X3892550Y2591572D01*
X3892550Y2664216D01*
X3974084Y2286010D02*
G01*
X4083050Y2286010D01*
X4083050Y2286010D02*
G01*
X4083050Y2348240D01*
X3974084Y2382530D02*
G01*
X4083050Y2382530D01*
X3974084Y2382530D02*
G01*
X3974084Y2450094D01*
X4025900Y2382530D02*
G01*
X4025900Y2424186D01*
X4083050Y2382530D02*
G01*
X4083050Y2450094D01*
X3974084Y2484384D02*
G01*
X4083050Y2484384D01*
X3974084Y2484384D02*
G01*
X3974084Y2520960D01*
X3979163Y2536454D01*
X3989577Y2546868D01*
X3999991Y2551948D01*
X4015740Y2557282D01*
X4041647Y2557282D01*
X4057141Y2551948D01*
X4067556Y2546868D01*
X4077970Y2536454D01*
X4083050Y2520960D01*
X4083050Y2484384D01*
X3974084Y2601986D02*
G01*
X3974084Y2659136D01*
X4015740Y2627894D01*
X4015740Y2643388D01*
X4020820Y2653802D01*
X4025900Y2659136D01*
X4041647Y2664216D01*
X4052061Y2664216D01*
X4067556Y2659136D01*
X4077970Y2648722D01*
X4083050Y2632974D01*
X4083050Y2617480D01*
X4077970Y2601986D01*
X4072890Y2596652D01*
X4062475Y2591572D01*
X4151884Y2286010D02*
G01*
X4260850Y2286010D01*
X4260850Y2286010D02*
G01*
X4260850Y2348240D01*
X4151884Y2382530D02*
G01*
X4260850Y2382530D01*
X4151884Y2382530D02*
G01*
X4151884Y2450094D01*
X4203700Y2382530D02*
G01*
X4203700Y2424186D01*
X4260850Y2382530D02*
G01*
X4260850Y2450094D01*
X4151884Y2484384D02*
G01*
X4260850Y2484384D01*
X4151884Y2484384D02*
G01*
X4151884Y2520960D01*
X4156963Y2536454D01*
X4167377Y2546868D01*
X4177791Y2551948D01*
X4193540Y2557282D01*
X4219447Y2557282D01*
X4234941Y2551948D01*
X4245356Y2546868D01*
X4255770Y2536454D01*
X4260850Y2520960D01*
X4260850Y2484384D01*
X4151884Y2643388D02*
G01*
X4224527Y2591572D01*
X4224527Y2669550D01*
X4151884Y2643388D02*
G01*
X4260850Y2643388D01*
X3023615Y2654300D02*
G01*
X2945638Y2654300D01*
X2930143Y2649220D01*
X2919729Y2638805D01*
X2914650Y2623057D01*
X2914650Y2612644D01*
X2919729Y2597150D01*
X2930143Y2586736D01*
X2945638Y2581655D01*
X3023615Y2581655D01*
X3002788Y2547365D02*
G01*
X3008122Y2536952D01*
X3023615Y2521204D01*
X2914650Y2521204D01*
X2426715Y2654300D02*
G01*
X2348738Y2654300D01*
X2333243Y2649220D01*
X2322829Y2638805D01*
X2317750Y2623057D01*
X2317750Y2612644D01*
X2322829Y2597150D01*
X2333243Y2586736D01*
X2348738Y2581655D01*
X2426715Y2581655D01*
X2400808Y2542031D02*
G01*
X2405888Y2542031D01*
X2416302Y2536952D01*
X2421636Y2531618D01*
X2426715Y2521204D01*
X2426715Y2500629D01*
X2421636Y2490215D01*
X2416302Y2484881D01*
X2405888Y2479802D01*
X2395474Y2479802D01*
X2385059Y2484881D01*
X2369565Y2495295D01*
X2317750Y2547365D01*
X2317750Y2474468D01*
X1791715Y2641600D02*
G01*
X1713737Y2641600D01*
X1698244Y2636520D01*
X1687829Y2626105D01*
X1682750Y2610357D01*
X1682750Y2599944D01*
X1687829Y2584450D01*
X1698244Y2574036D01*
X1713737Y2568955D01*
X1791715Y2568955D01*
X1791715Y2524252D02*
G01*
X1791715Y2467102D01*
X1750060Y2498089D01*
X1750060Y2482595D01*
X1744979Y2472181D01*
X1739900Y2467102D01*
X1724152Y2461768D01*
X1713737Y2461768D01*
X1698244Y2467102D01*
X1687829Y2477515D01*
X1682750Y2493010D01*
X1682750Y2508504D01*
X1687829Y2524252D01*
X1692910Y2529331D01*
X1703323Y2534665D01*
X1144015Y2654300D02*
G01*
X1066037Y2654300D01*
X1050544Y2649220D01*
X1040129Y2638805D01*
X1035050Y2623057D01*
X1035050Y2612644D01*
X1040129Y2597150D01*
X1050544Y2586736D01*
X1066037Y2581655D01*
X1144015Y2581655D01*
X1144015Y2495295D02*
G01*
X1071371Y2547365D01*
X1071371Y2469387D01*
X1144015Y2495295D02*
G01*
X1035050Y2495295D01*
X2097277Y1105407D02*
G01*
X2091943Y1115821D01*
X2081529Y1126236D01*
X2071370Y1131315D01*
X2050541Y1131315D01*
X2040127Y1126236D01*
X2029713Y1115821D01*
X2024379Y1105407D01*
X2019300Y1089660D01*
X2019300Y1063752D01*
X2024379Y1048257D01*
X2029713Y1037844D01*
X2040127Y1027429D01*
X2050541Y1022350D01*
X2071370Y1022350D01*
X2081529Y1027429D01*
X2091943Y1037844D01*
X2097277Y1048257D01*
X2136647Y1105407D02*
G01*
X2136647Y1110487D01*
X2141981Y1120902D01*
X2147061Y1126236D01*
X2157475Y1131315D01*
X2178304Y1131315D01*
X2188718Y1126236D01*
X2193797Y1120902D01*
X2199131Y1110487D01*
X2199131Y1100073D01*
X2193797Y1089660D01*
X2183384Y1074165D01*
X2131568Y1022350D01*
X2204211Y1022350D01*
G36*
X3670300Y2947670D02*
G01*
X3634282Y2922676D01*
X3706317Y2921711D01*
G37*
G36*
X3848100Y2947670D02*
G01*
X3812082Y2922676D01*
X3884117Y2921711D01*
G37*
G36*
X4025900Y2947670D02*
G01*
X3989882Y2922676D01*
X4061917Y2921711D01*
G37*
G36*
X4203700Y2947670D02*
G01*
X4167682Y2922676D01*
X4239717Y2921711D01*
G37*
X1752569Y1156639D02*
G01*
X1831578Y1156639D01*
X1831578Y1256360D02*
G01*
X1752569Y1256360D01*
X1737329Y1241120D02*
G01*
X1737329Y1171879D01*
X1955830Y1156639D02*
G01*
X1876821Y1156639D01*
X1876821Y1256360D02*
G01*
X1955830Y1256360D01*
X1971070Y1241120D02*
G01*
X1971070Y1171879D01*
D12*
X3597300Y2970700D02*
G01*
X3597300Y3085698D01*
X3742298Y3085698D01*
X3742298Y2965698D01*
X3743299Y2903700D02*
G01*
X3743299Y2779699D01*
X3598301Y2779699D01*
X3598301Y2903700D01*
X3597300Y3085698D02*
G01*
X3597300Y3088700D01*
X3617300Y3108700D01*
X3719299Y3108700D01*
X3722298Y3105698D01*
X3742298Y3085698D01*
X3775100Y2970700D02*
G01*
X3775100Y3085698D01*
X3920098Y3085698D01*
X3920098Y2965698D01*
X3921099Y2903700D02*
G01*
X3921099Y2779699D01*
X3776101Y2779699D01*
X3776101Y2903700D01*
X3775100Y3085698D02*
G01*
X3775100Y3088700D01*
X3795100Y3108700D01*
X3897099Y3108700D01*
X3900098Y3105698D01*
X3920098Y3085698D01*
X3952900Y2970700D02*
G01*
X3952900Y3085698D01*
X4097898Y3085698D01*
X4097898Y2965698D01*
X4098899Y2903700D02*
G01*
X4098899Y2779699D01*
X3953901Y2779699D01*
X3953901Y2903700D01*
X3952900Y3085698D02*
G01*
X3952900Y3088700D01*
X3972900Y3108700D01*
X4074899Y3108700D01*
X4077898Y3105698D01*
X4097898Y3085698D01*
X4130700Y2970700D02*
G01*
X4130700Y3085698D01*
X4275698Y3085698D01*
X4275698Y2965698D01*
X4276699Y2903700D02*
G01*
X4276699Y2779699D01*
X4131701Y2779699D01*
X4131701Y2903700D01*
X4130700Y3085698D02*
G01*
X4130700Y3088700D01*
X4150700Y3108700D01*
X4252699Y3108700D01*
X4255698Y3105698D01*
X4275698Y3085698D01*
D11*
X1752569Y1029639D02*
G01*
X1831578Y1029639D01*
X1831578Y1129360D02*
G01*
X1752569Y1129360D01*
X1737329Y1114120D02*
G01*
X1737329Y1044879D01*
X1955830Y1029639D02*
G01*
X1876821Y1029639D01*
X1876821Y1129360D02*
G01*
X1955830Y1129360D01*
X1971070Y1114120D02*
G01*
X1971070Y1044879D01*
G75*
G01*
X1752570Y1256360D02*
G03*
X1737330Y1241120I0J-15240D01*
G75*
G01*
X1737330Y1171880D02*
G03*
X1752570Y1156640I15240J0D01*
G75*
G01*
X1955830Y1256360D02*
G02*
X1971070Y1241120I0J-15240D01*
G75*
G01*
X1971070Y1171880D02*
G02*
X1955830Y1156640I-15240J0D01*
G75*
G01*
X1752570Y1129360D02*
G03*
X1737330Y1114120I0J-15240D01*
G75*
G01*
X1737330Y1044880D02*
G03*
X1752570Y1029640I15240J0D01*
G75*
G01*
X1955830Y1129360D02*
G02*
X1971070Y1114120I0J-15240D01*
G75*
G01*
X1971070Y1044880D02*
G02*
X1955830Y1029640I-15240J0D01*
M02*
