G04 Layer: BoardOutlineLayer*
G04 EasyEDA v6.5.46, 2024-08-14 00:49:08*
G04 dde63f3f8315456bab8066d9accbbf49,2068458b4593477ca407b24a564fb9b8,10*
G04 Gerber Generator version 0.2*
G04 Scale: 100 percent, Rotated: No, Reflected: No *
G04 Dimensions in millimeters *
G04 leading zeros omitted , absolute positions ,4 integer and 5 decimal *
%FSLAX45Y45*%
%MOMM*%

%ADD10C,0.2540*%
%ADD11C,0.1001*%
D10*
X3073400Y2755900D02*
G01*
X3454400Y2755900D01*
X3454400Y2400300D01*
X3073400Y2400300D01*
X3073400Y2482342D01*
X3073400Y2609595D01*
X3073400Y2755900D01*
X2476500Y2755900D02*
G01*
X2857500Y2755900D01*
X2857500Y2400300D01*
X2476500Y2400300D01*
X2476500Y2482342D01*
X2476500Y2609595D01*
X2476500Y2755900D01*
X1841500Y2749550D02*
G01*
X2222500Y2749550D01*
X2222500Y2393950D01*
X1841500Y2393950D01*
X1841500Y2475997D01*
X1841500Y2603251D01*
X1841500Y2749550D01*
X1206500Y2755900D02*
G01*
X1587500Y2755900D01*
X1587500Y2400300D01*
X1206500Y2400300D01*
X1206500Y2482342D01*
X1206500Y2609595D01*
X1206500Y2755900D01*
D11*
X4773599Y184200D02*
G01*
X621626Y184200D01*
X5073599Y1286123D02*
G01*
X5073599Y484200D01*
X5073599Y2884195D02*
G01*
X5073599Y2582270D01*
X621626Y3184194D02*
G01*
X4773599Y3184194D01*
X321627Y484200D02*
G01*
X321627Y884199D01*
X541627Y884199D01*
X541627Y1084198D01*
X821626Y1084198D01*
X821626Y2214196D01*
X541627Y2214196D01*
X541627Y2414196D01*
X321627Y2414196D01*
X321627Y2884195D01*
G75*
G01*
X321627Y2884195D02*
G02*
X621627Y3184195I300000J0D01*
G75*
G01*
X4773600Y3184195D02*
G02*
X5073599Y2884195I0J-300000D01*
G75*
G01*
X5073599Y2582271D02*
G02*
X4967717Y2353539I-299999J-1D01*
G75*
G01*
X4967717Y2353539D02*
G03*
X4967717Y1514856I355881J-419342D01*
G75*
G01*
X4967717Y1514856D02*
G02*
X5073599Y1286124I-194117J-228732D01*
G75*
G01*
X5073599Y484200D02*
G02*
X4773600Y184201I-299999J0D01*
G75*
G01*
X621627Y184201D02*
G02*
X321627Y484200I0J299999D01*

%LPD*%
M02*
